<svg id="Layer_1" data-name="Layer 1" xmlns="http://www.w3.org/2000/svg" viewBox="0 0 1045.68 222.67"><defs><style>.cls-1{fill:#0a459b;}</style></defs><path class="cls-1" d="M132.18,390.64,7.45,607.6H97.24l91.42-155.21s18.28-26,45.91,2.44c.41,2.44,92.64,152.77,92.64,152.77h26.41L220.35,389H132.18Z" transform="translate(-7.45 -389.01)"/><path class="cls-1" d="M472.8,566.94V437.46s-2.57-28.3,40.5-22.21c2,.41,182.83,0,182.83,0V393.31H424.32s-29.66-1.62-24,45.51v152s2.44,21.12,34.54,20.72c2,.4,261.25,0,261.25,0V597.28H493.79S472.8,597.14,472.8,566.94Z" transform="translate(-7.45 -389.01)"/><polygon class="cls-1" points="765.61 220.66 765.61 2.29 837.66 2.29 837.66 108.2 975.8 108.2 975.8 2.29 1045.68 2.29 1045.68 220.66 974.72 220.66 974.72 123.73 837.12 123.73 837.12 220.66 765.61 220.66"/></svg>