<svg id="Layer_1" data-name="Layer 1" xmlns="http://www.w3.org/2000/svg" viewBox="0 0 951.71 864.86"><defs><style>.cls-1{fill:#0a459b;}.cls-2{fill:#fff;}</style></defs><path class="cls-1" d="M436.14,48.41,190.85,475.08H367.43L547.2,169.86s36-51.13,90.29,4.8c.8,4.79,182.17,300.42,182.17,300.42H871.6L609.53,45.22H436.14Z" transform="translate(-8.45 -45.22)"/><path class="cls-1" d="M550.5,881.74H193.64s-41.27-.26-41.27-59.64V567.47s-5.08-55.65,79.62-43.68c2.6.53,153.1.38,258.54.2v-.73a3.85,3.85,0,0,1-.92-2,4.92,4.92,0,0,1-.06-2.29v-35.5a4.75,4.75,0,0,1,.33-2.86H57s-58.33-3.19-47.14,89.49V869s4.8,41.55,67.93,40.76c2.85.57,263.53.32,412.41.16V886.66a3.92,3.92,0,0,1,.9-2.61,3.82,3.82,0,0,1,3.53-2H550.5A2.81,2.81,0,0,1,550.5,881.74Z" transform="translate(-8.45 -45.22)"/><path class="cls-1" d="M822.74,480.64V688.92H551.08V480.64H510.66a4.24,4.24,0,0,1,.35,1.73v37.38a4.13,4.13,0,0,1-.59,2.18v1.86h-2a4.22,4.22,0,0,1-1.95.46H414.4a4.72,4.72,0,0,1-4.13-.27h-.87V885a3.54,3.54,0,0,1,.57-1,3.84,3.84,0,0,1,3.54-2h91.67a4.29,4.29,0,0,1,4.24,4.23v23.82H550V719.46H820.61V910.07H960.16V480.64Z" transform="translate(-8.45 -45.22)"/><g id="eye1"><circle id="eyep" class="cls-2" cx="450.69" cy="39.69" r="25.45"/><circle id="eyec" cx="450.69" cy="39.69" r="15.51"/><circle id="eyeg" class="cls-2" cx="447.77" cy="32.54" r="2.92"/></g><g id="eye2"><circle id="eyep-2" data-name="eyep" class="cls-2" cx="583" cy="39.69" r="25.45"/><circle id="eyec-2" data-name="eyec" cx="583" cy="39.69" r="15.51"/><circle id="eyeg-2" data-name="eyeg" class="cls-2" cx="580.08" cy="32.54" r="2.92"/></g><g id="eye1-2" data-name="eye1"><circle id="eyep-3" data-name="eyep" class="cls-2" cx="226.08" cy="457.51" r="20.18"/><circle id="eyec-3" data-name="eyec" cx="226.08" cy="457.51" r="12.29"/><circle id="eyeg-3" data-name="eyeg" class="cls-2" cx="223.77" cy="451.83" r="2.31"/></g><g id="eye2-2" data-name="eye2"><circle id="eyep-4" data-name="eyep" class="cls-2" cx="330.96" cy="457.51" r="20.18"/><circle id="eyec-4" data-name="eyec" cx="330.96" cy="457.51" r="12.29"/><circle id="eyeg-4" data-name="eyeg" class="cls-2" cx="328.64" cy="451.83" r="2.31"/></g><g id="eye1-3" data-name="eye1"><circle id="eyep-5" data-name="eyep" class="cls-2" cx="841.17" cy="457.51" r="16.38"/><circle id="eyec-5" data-name="eyec" cx="841.17" cy="457.51" r="9.98"/><circle id="eyeg-5" data-name="eyeg" class="cls-2" cx="839.29" cy="452.9" r="1.88"/></g><g id="eye2-3" data-name="eye2"><circle id="eyep-6" data-name="eyep" class="cls-2" cx="926.29" cy="457.51" r="16.38"/><circle id="eyec-6" data-name="eyec" cx="926.29" cy="457.51" r="9.98"/><circle id="eyeg-6" data-name="eyeg" class="cls-2" cx="924.42" cy="452.9" r="1.88"/></g></svg>